<svg width="186" height="64" viewBox="0 0 186 64" fill="none" xmlns="http://www.w3.org/2000/svg">
  <rect width="186" height="64" rx="18" fill="white"/>
  <path d="M31.4 41.4C26.3 41.4 22.2 37.2 22.2 32C22.2 26.8 26.3 22.6 31.4 22.6C34.2 22.6 36.2 23.7 37.7 25.1L35 27.7C34 26.8 32.7 26.1 31.4 26.1C28 26.1 25.2 28.9 25.2 32C25.2 35.1 28 37.9 31.4 37.9C35.3 37.9 36.8 35.1 37.1 33.6H31.4V30.2H40.5C40.6 30.7 40.7 31.4 40.7 32.1C40.7 37.8 36.9 41.4 31.4 41.4Z" fill="#4285F4"/>
  <path d="M48.9 28.8C52.6 28.8 55.6 31.6 55.6 35.2C55.6 38.8 52.6 41.6 48.9 41.6C45.1 41.6 42.2 38.8 42.2 35.2C42.2 31.6 45.1 28.8 48.9 28.8ZM48.9 38.8C50.9 38.8 52.2 37.2 52.2 35.2C52.2 33.2 50.9 31.6 48.9 31.6C46.8 31.6 45.6 33.2 45.6 35.2C45.6 37.2 46.8 38.8 48.9 38.8Z" fill="#EA4335"/>
  <path d="M63.6 28.8C67.4 28.8 70.3 31.6 70.3 35.2C70.3 38.8 67.4 41.6 63.6 41.6C59.9 41.6 56.9 38.8 56.9 35.2C56.9 31.6 59.9 28.8 63.6 28.8ZM63.6 38.8C65.7 38.8 66.9 37.2 66.9 35.2C66.9 33.2 65.7 31.6 63.6 31.6C61.6 31.6 60.3 33.2 60.3 35.2C60.3 37.2 61.6 38.8 63.6 38.8Z" fill="#FBBC05"/>
  <path d="M78 47.8C74.6 47.8 72.2 45.5 71.4 43.5L74.4 42.3C74.9 43.5 76.1 44.8 78 44.8C80.3 44.8 81.8 43.4 81.8 40.8V39.8H81.7C80.9 40.8 79.5 41.6 77.8 41.6C74.5 41.6 71.5 38.7 71.5 35.2C71.5 31.6 74.5 28.8 77.8 28.8C79.5 28.8 80.9 29.6 81.7 30.6H81.8V29.2H85V40.6C85 45.8 81.9 47.8 78 47.8ZM78.1 38.8C80.1 38.8 81.7 37.1 81.7 35.2C81.7 33.2 80.1 31.6 78.1 31.6C76 31.6 74.9 33.2 74.9 35.2C74.9 37.1 76 38.8 78.1 38.8Z" fill="#4285F4"/>
  <path d="M90.2 22.1V41.1H86.9V22.1H90.2Z" fill="#34A853"/>
  <path d="M98.7 41.6C94.9 41.6 92.1 38.8 92.1 35.2C92.1 31.4 94.9 28.8 98.4 28.8C102.1 28.8 103.9 31.7 104.5 33.3L104.8 34.1L96 37.7C96.7 39 97.8 39.7 99.2 39.7C100.6 39.7 101.6 39 102.3 38L104.9 39.7C104 41 102.1 41.6 98.7 41.6ZM95.4 34.9L101.3 32.5C101 31.8 100.2 31.4 99.3 31.4C98 31.4 95.9 32.5 95.4 34.9Z" fill="#EA4335"/>
  <text x="113" y="38" fill="#171717" font-family="Arial, Helvetica, sans-serif" font-size="19" font-weight="700">Google</text>
</svg>
